<?xml version="1.0" encoding="utf-8"?><svg xmlns="http://www.w3.org/2000/svg" xmlns:xlink="http://www.w3.org/1999/xlink"><symbol viewBox="-80 -80 672 672" id="online-store" xmlns="http://www.w3.org/2000/svg"><path d="M494.345 463.448H17.655V48.552a8.829 8.829 0 0 1 8.828-8.828h459.034a8.829 8.829 0 0 1 8.828 8.828v414.896z"/><path d="M494.345 180.205c-1.809.45-3.67.76-5.618.76-12.853 0-23.273-10.42-23.273-23.273 0 12.852-10.42 23.273-23.273 23.273s-23.273-10.42-23.273-23.273c0 12.852-10.419 23.273-23.273 23.273-12.853 0-23.273-10.42-23.273-23.273 0 12.852-10.42 23.273-23.273 23.273s-23.273-10.42-23.273-23.273c0 12.852-10.42 23.273-23.273 23.273s-23.273-10.42-23.273-23.273c0 12.852-10.419 23.273-23.273 23.273s-23.273-10.42-23.273-23.273c0 12.852-10.42 23.273-23.273 23.273s-23.273-10.42-23.273-23.273c0 12.852-10.419 23.273-23.273 23.273-12.853 0-23.273-10.42-23.273-23.273 0 12.852-10.42 23.273-23.273 23.273s-23.273-10.42-23.273-23.273c0 12.852-10.42 23.273-23.273 23.273s-23.273-10.42-23.273-23.273c0 12.852-10.419 23.273-23.273 23.273-1.948 0-3.809-.31-5.618-.76v17.848c1.854.257 3.694.568 5.618.568 8.639 0 16.661-2.69 23.273-7.277a40.713 40.713 0 0 0 23.275 7.276c8.639 0 16.661-2.69 23.273-7.277 6.612 4.587 14.634 7.277 23.273 7.277s16.661-2.69 23.273-7.277a40.698 40.698 0 0 0 23.273 7.277c8.639 0 16.661-2.69 23.273-7.277a40.698 40.698 0 0 0 23.273 7.277c8.639 0 16.661-2.69 23.273-7.277 6.611 4.587 14.633 7.277 23.272 7.277s16.661-2.69 23.273-7.277a40.698 40.698 0 0 0 23.273 7.277c8.639 0 16.661-2.69 23.273-7.277a40.698 40.698 0 0 0 23.273 7.277c8.639 0 16.661-2.69 23.273-7.277 6.612 4.587 14.634 7.277 23.273 7.277s16.661-2.69 23.273-7.277a40.698 40.698 0 0 0 23.273 7.277c8.64 0 16.661-2.69 23.273-7.277a40.698 40.698 0 0 0 23.273 7.277c1.923 0 3.764-.31 5.618-.568v-17.847h-.001zM61.793 216.276h247.172v158.897H61.793z"/><path d="M264.828 366.345h-17.656L141.241 225.103h17.656zM209.454 180.966c-12.853 0-23.273-10.42-23.273-23.273v-20.865h46.546v20.865c0 12.853-10.42 23.273-23.273 23.273zm93.092 0c-12.853 0-23.273-10.42-23.273-23.273v-20.865h46.546v20.865c-.001 12.853-10.42 23.273-23.273 23.273zm-186.182 0c-12.853 0-23.273-10.42-23.273-23.273v-20.865h46.546v20.865c-.001 12.853-10.42 23.273-23.273 23.273zm-93.091 0C10.42 180.966 0 170.546 0 157.693v-20.865h46.546v20.865c0 12.853-10.42 23.273-23.273 23.273zm372.363 0c-12.853 0-23.273-10.42-23.273-23.273v-20.865h46.546v20.865c0 12.853-10.419 23.273-23.273 23.273z"/><path d="M162.909 180.966c-12.853 0-23.273-10.42-23.273-23.273v-20.865h46.546v20.865c0 12.853-10.419 23.273-23.273 23.273zm186.182 0c-12.853 0-23.273-10.42-23.273-23.273v-20.865h46.546v20.865c-.001 12.853-10.42 23.273-23.273 23.273zM488.727 180.966c-12.853 0-23.273-10.42-23.273-23.273v-20.865H512v20.865c0 12.853-10.42 23.273-23.273 23.273z"/><path d="M442.182 180.966c-12.853 0-23.273-10.42-23.273-23.273v-20.865h46.546v20.865c-.001 12.853-10.421 23.273-23.273 23.273zm-372.364 0c-12.853 0-23.273-10.42-23.273-23.273v-20.865h46.546v20.865c0 12.853-10.42 23.273-23.273 23.273zm186.182 0c-12.853 0-23.273-10.42-23.273-23.273v-20.865h46.546v20.865c0 12.853-10.42 23.273-23.273 23.273zM232.727 136.828h-46.545l4.815-70.621h43.336zm93.091 0h-46.545l-1.606-70.621h43.336zm-186.182 0H93.091l11.235-70.621h43.335zm-93.09 0H0l17.655-70.621h43.336zm372.363 0h-46.546l-8.024-70.621h43.334z"/><path d="M186.182 136.828h-46.546l8.025-70.621h43.336zm186.181 0h-46.545l-4.815-70.621h43.336zM512 136.828h-46.546l-14.445-70.621h43.336z"/><path d="M465.454 136.828h-46.545l-11.236-70.621h43.336zm-372.363 0H46.546l14.445-70.621h43.335zm186.182 0h-46.546l1.606-70.621h43.334zM503.172 472.276H8.828a8.829 8.829 0 0 1 0-17.656h494.345a8.829 8.829 0 0 1 8.828 8.828 8.83 8.83 0 0 1-8.829 8.828z"/><path d="M17.655 436.966h476.69v17.655H17.655z" opacity=".97"/><path d="M17.655 401.655h476.69v35.31H17.655z"/><path d="M300.138 225.103v141.241H70.621V225.103h229.517m8.828-17.655H61.793a8.829 8.829 0 0 0-8.828 8.828v158.897a8.829 8.829 0 0 0 8.828 8.828h247.172a8.829 8.829 0 0 0 8.828-8.828V216.276a8.828 8.828 0 0 0-8.827-8.828zm141.241 0h-88.276a8.829 8.829 0 0 0-8.828 8.828v220.69h105.931v-220.69a8.828 8.828 0 0 0-8.827-8.828z"/><path d="M370.759 225.103h70.621v141.241h-70.621z"/><path d="M70.621 225.103h229.517v17.655H70.621zm300.138 0h70.621v17.655h-70.621z"/><path d="M229.517 366.345h-35.31L88.276 225.103h35.31zM172.138 242.759l-13.241-17.656h-17.656l13.242 17.656zM441.379 295.724l-52.965-70.621h-17.655l70.62 94.162z"/><path d="M401.655 242.759l-13.241-17.656h-17.655L384 242.759z"/><path d="M370.759 225.103h70.621v17.655h-70.621z"/><path d="M441.379 295.724l-52.965-70.621h-17.655l70.62 94.162zM370.759 248.644v47.08l52.965 70.621h17.655v-23.541z"/></symbol><symbol viewBox="-136 -80 672 672" id="pizza-slice" xmlns="http://www.w3.org/2000/svg"><path d="M378.242 58.23c-128.363 0-244.57 52.032-328.691 136.149L355.77 500.598c8.292 8.293 22.472 2.418 22.472-9.309zm0 0"/><path d="M321.438 61.676v404.59l34.332 34.336c8.293 8.293 22.472 2.418 22.472-9.309V58.23a469.225 469.225 0 0 0-56.804 3.446zm0 0"/><path d="M346.621 137.45c0 13.91-11.273 25.187-25.183 25.187-13.915 0-25.188-11.278-25.188-25.188 0-13.91 11.273-25.187 25.188-25.187 13.91 0 25.183 11.277 25.183 25.187zM245.68 298.137c0 12.578-10.196 22.773-22.774 22.773s-22.777-10.195-22.777-22.773 10.2-22.778 22.777-22.778 22.774 10.2 22.774 22.778zm110.379-3.43c0 13.164-10.676 23.84-23.844 23.84-13.164 0-23.84-10.676-23.84-23.84 0-13.168 10.676-23.84 23.84-23.84 13.168 0 23.844 10.672 23.844 23.84zm0 0M324.176 359.422h-5.508c-14.3 0-25.89 11.59-25.89 25.89a6.99 6.99 0 0 0 6.988 6.993h6.98a2.738 2.738 0 0 1 2.734 2.882l-.578 10.872a5.862 5.862 0 0 0 5.852 6.175h13.332a5.862 5.862 0 0 0 5.855-6.175l-.578-10.872a2.738 2.738 0 0 1 2.735-2.882h6.98a6.99 6.99 0 0 0 6.988-6.993c.004-14.296-11.586-25.89-25.89-25.89zm-101.27-161.199v6.492c0 16.855 13.664 30.52 30.516 30.52a8.244 8.244 0 0 0 8.242-8.243v-8.222a3.23 3.23 0 0 1 3.399-3.227l12.812.684a6.91 6.91 0 0 0 7.277-6.903v-15.71c0-3.962-3.324-7.114-7.277-6.903l-12.813.684a3.23 3.23 0 0 1-3.398-3.227v-8.227c0-4.546-3.691-8.238-8.242-8.238-16.852 0-30.516 13.664-30.516 30.52zm0 0"/><path d="M367.145 7.512c-1.313-.012-2.625-.02-3.942-.02-135.754 0-258.66 55.028-347.625 143.992l-.375.375c-10.27 10.293-10.254 27.133.027 37.414l19.254 19.258c10.387 10.383 27.375 10.38 37.754-.008l.192-.191c.05-.055.105-.11.16-.164 8.812-8.8 23.172-8.555 31.781.45l39.219 41.019a13.686 13.686 0 0 0 19.601.222c5.454-5.453 5.555-14.472.223-20.047l-28.226-29.527c-5.215-5.457-5.512-14.156-.31-19.625 5.556-5.836 14.79-5.789 20.294-.031l8.89 9.293c5.215 5.457 13.895 6.14 19.586 1.187 6.082-5.285 6.454-14.515.95-20.27l-6.45-6.745c-10.433-10.91-7.253-28.871 6.34-35.442 54.043-26.12 114.668-40.765 178.715-40.765 1.215 0 2.434.008 3.649.015 14.675.133 26.62-11.773 26.62-26.453V33.996c.005-14.566-11.761-26.36-26.327-26.484zm0 0"/><path d="M367.145 7.512c-1.313-.012-2.625-.02-3.942-.02-9.176 0-18.293.262-27.344.758v80.543a417.094 417.094 0 0 1 30.993-.89c14.675.132 26.62-11.774 26.62-26.454V33.996c.005-14.566-11.761-26.36-26.327-26.484zm0 0"/><path d="M367.21.02a445.65 445.65 0 0 0-4.007-.02c-67.375 0-132.738 13.195-194.277 39.227C109.492 64.363 56.117 100.352 10.27 146.195l-.372.375c-13.21 13.239-13.195 34.778.036 48.004l19.254 19.258c6.437 6.438 15.019 9.98 24.167 9.98h.008c9.157-.003 17.739-3.55 24.18-9.996l.344-.343a14.515 14.515 0 0 1 10.328-4.262h.18a14.746 14.746 0 0 1 10.562 4.586l39.219 41.023c3.98 4.164 9.34 6.493 15.086 6.559h.242c5.656 0 10.969-2.203 14.988-6.219 8.32-8.324 8.477-22.015.34-30.523l-28.23-29.528c-2.52-2.636-2.653-6.8-.297-9.277a6.477 6.477 0 0 1 4.73-2.035h.008c1.797 0 3.473.715 4.715 2.012l8.887 9.296c8.105 8.48 21.25 9.208 29.925 1.665 4.489-3.907 7.11-9.32 7.383-15.25a21.597 21.597 0 0 0-5.941-15.856l-6.446-6.742c-3.316-3.469-4.726-8.168-3.875-12.89.848-4.688 3.786-8.563 8.059-10.626 54.941-26.554 113.973-40.02 175.453-40.02 1.195 0 2.387.005 3.578.016 9.13.094 17.66-3.402 24.125-9.808 6.489-6.43 10.059-15.004 10.059-24.137v-27.46C400.969 15.421 385.825.18 367.21.02zm18.77 61.433c0 5.106-1.996 9.899-5.62 13.488-3.606 3.575-8.395 5.555-13.442 5.47a392.023 392.023 0 0 0-3.715-.016c-63.758 0-124.984 13.964-181.973 41.511-8.64 4.172-14.574 11.992-16.285 21.453-1.718 9.496 1.121 18.942 7.785 25.914l6.45 6.743c1.242 1.3 1.882 3.011 1.8 4.808s-.878 3.446-2.246 4.633c-2.582 2.246-6.734 1.926-9.257-.71l-8.887-9.298a21.613 21.613 0 0 0-15.55-6.644h-.02c-5.938.004-11.465 2.382-15.57 6.691-7.927 8.324-7.786 21.488.32 29.965L158 234.988c2.508 2.625 2.457 7.004-.105 9.57-1.2 1.2-2.797 1.82-4.465 1.833a6.202 6.202 0 0 1-4.426-1.93l-39.219-41.024c-5.59-5.847-13.129-9.12-21.219-9.214-.12-.004-.238-.004-.355-.004-7.91 0-15.324 3.062-20.895 8.625l-.117.117-.078.074-.184.188c-3.605 3.609-8.43 5.597-13.578 5.597h-.004c-5.144 0-9.964-1.984-13.57-5.59l-19.258-19.257c-7.39-7.391-7.402-19.422-.004-26.836l.356-.356c44.46-44.465 96.238-79.375 153.887-103.758 59.68-25.242 123.078-38.039 188.437-38.039 1.293 0 2.582.004 3.871.016h.004c10.422.094 18.902 8.613 18.902 18.992zm0 0"/><path d="M378.242 114.371a7.491 7.491 0 0 0-7.492 7.492V491.29c0 3.516-2.68 4.898-3.504 5.238-.82.34-3.691 1.258-6.176-1.226L97.586 231.816a7.495 7.495 0 0 0-10.598 10.598l263.485 263.484c4 4 9.156 6.102 14.472 6.102 2.68 0 5.403-.535 8.04-1.625 7.863-3.258 12.75-10.57 12.75-19.086V121.863a7.494 7.494 0 0 0-7.493-7.492zm0 0"/><path d="M321.438 104.77c-18.024 0-32.684 14.66-32.684 32.68s14.66 32.679 32.684 32.679c18.019 0 32.68-14.66 32.68-32.68s-14.661-32.68-32.68-32.68zm0 50.375c-9.758 0-17.696-7.938-17.696-17.696 0-9.758 7.938-17.691 17.695-17.691 9.754 0 17.692 7.933 17.692 17.691s-7.938 17.696-17.691 17.696zM192.637 298.137c0 16.687 13.578 30.265 30.27 30.265 16.687 0 30.265-13.578 30.265-30.265 0-16.692-13.578-30.27-30.266-30.27-16.691 0-30.27 13.578-30.27 30.27zm30.27-15.282c8.425 0 15.28 6.856 15.28 15.282s-6.855 15.281-15.28 15.281-15.286-6.855-15.286-15.281 6.86-15.282 15.285-15.282zm109.312-19.484c-17.278 0-31.336 14.059-31.336 31.336s14.058 31.332 31.336 31.332 31.332-14.055 31.332-31.332-14.059-31.336-31.332-31.336zm0 47.68c-9.016 0-16.348-7.332-16.348-16.344 0-9.016 7.332-16.348 16.348-16.348 9.011 0 16.344 7.332 16.344 16.348 0 9.012-7.333 16.344-16.344 16.344zm25.347 74.262c0-18.41-14.98-33.387-33.386-33.387h-5.508c-18.41 0-33.39 14.976-33.39 33.387 0 7.988 6.5 14.484 14.484 14.484h1.964l-.312 5.863a13.439 13.439 0 0 0 3.644 9.902 13.421 13.421 0 0 0 9.696 4.168h13.332c3.648 0 7.18-1.52 9.691-4.167s3.84-6.258 3.649-9.903l-.313-5.863h1.965c7.984.004 14.484-6.496 14.484-14.484zm-21.464-.5a10.276 10.276 0 0 0-7.426 3.19 10.275 10.275 0 0 0-2.793 7.583l.488 9.156h-9.894l.488-9.156a10.26 10.26 0 0 0-2.797-7.582 10.258 10.258 0 0 0-7.422-3.192h-6.469c.266-9.917 8.414-17.898 18.395-17.898h5.508c9.976 0 18.125 7.98 18.39 17.899zm-82.68-224.603c-20.961 0-38.012 17.052-38.012 38.017v6.488c0 20.96 17.05 38.012 38.012 38.012 8.676 0 15.734-7.055 15.734-15.73v-3.727l8.32.44a14.43 14.43 0 0 0 10.676-3.929 14.474 14.474 0 0 0 4.493-10.453v-15.715c0-3.933-1.637-7.746-4.493-10.453a14.474 14.474 0 0 0-10.675-3.93l-8.32.442v-3.727c0-8.675-7.055-15.734-15.735-15.734zm24.238 34.017v14.484l-12.2-.649c-2.933-.148-5.82.91-7.944 2.926s-3.348 4.852-3.348 7.782v8.222a.743.743 0 0 1-.742.746c-12.7 0-23.028-10.328-23.028-23.023v-6.492c0-12.696 10.329-23.028 23.028-23.028.41 0 .742.336.742.746v8.227c0 2.93 1.223 5.766 3.348 7.781s5.02 3.074 7.945 2.922zm0 0"/></symbol><symbol viewBox="-79.99 -79.99 671.9 671.9" id="send" xmlns="http://www.w3.org/2000/svg"><path d="M505.77 46.551a16.889 16.889 0 0 0-17.109-2.697L56.482 218.293a8.538 8.538 0 0 0 6.4 15.83l412.86-166.588-204.8 241.545a8.534 8.534 0 1 0 13.022 11.034L491.861 74.899l-27.785 139.469-27.989 187.025a8.536 8.536 0 0 1-4.267 6.204 8.066 8.066 0 0 1-7.194.333l-116.369-45.756-55.842-23.381a8.533 8.533 0 0 0-11.17 4.565 8.19 8.19 0 0 0-.358 1.801h-.205l-27.725 107.059-39.782-138.965L380.535 158.8a8.533 8.533 0 1 0-10.189-13.653L161.92 300.324 11.682 239.507a8.534 8.534 0 0 0-6.4 15.821l151.04 61.116 40.277 140.612a16.921 16.921 0 0 0 16.316 12.228h.196a16.768 16.768 0 0 0 11.093-4.463c.298-.179.583-.379.853-.597l82.483-84.343 110.592 43.853a24.865 24.865 0 0 0 21.939-1.229 25.524 25.524 0 0 0 12.86-18.526l27.913-186.675 30.72-154.121a17.16 17.16 0 0 0-5.794-16.632zM236.877 427.786l18.014-69.436 28.211 11.844 7.27 2.884-53.495 54.708z"/></symbol></svg>