<?xml version="1.0" encoding="utf-8"?><svg xmlns="http://www.w3.org/2000/svg" xmlns:xlink="http://www.w3.org/1999/xlink"><symbol viewBox="0 0 24 24" id="ecolog" xmlns="http://www.w3.org/2000/svg"><path d="M17 8C8 10 5.9 16.17 3.82 21.34l1.89.66.95-2.3c.48.17.98.3 1.34.3C19 20 22 3 22 3c-1 2-8 2.25-13 3.25S2 11.5 2 13.5s1.75 3.75 1.75 3.75C7 8 17 8 17 8z"/></symbol><symbol viewBox="0 0 24 24" id="jurist" xmlns="http://www.w3.org/2000/svg"><path fill-rule="evenodd" clip-rule="evenodd" d="M16.907 20.844c-.657-1.116-2.427-1.95-4.578-2.091V7.95c.348-.216.577-.603.577-1.042 0-.426-.218-.802-.548-1.021.282.022.565.063.859.143.52.141 1.077.399 1.697.864 1.16.871 2.215 1.077 3.063 1.01a.249.249 0 0 0-.041.071l-1.571 4.245-1.573 4.245.001.001a.315.315 0 0 0-.016.069h-.11a3.692 3.692 0 0 0 3.507 2.542 3.694 3.694 0 0 0 3.507-2.542h-.111a.243.243 0 0 0-.015-.07l-1.572-4.245-1.566-4.231a.265.265 0 0 0-.093-.127c1.063-.182 1.725-.758 1.728-.762a.251.251 0 1 0-.325-.383c-.005.004-1.947 1.699-4.511-.226-.676-.507-1.291-.791-1.868-.947a5.48 5.48 0 0 0-1.247-.178V3.051h-.839v2.314c-.399.015-.812.06-1.248.178-.578.156-1.192.44-1.868.947-2.563 1.925-4.506.23-4.511.226a.251.251 0 1 0-.325.384c.003.003.665.58 1.729.762a.242.242 0 0 0-.088.113L3.379 12.22l-1.572 4.245.001.001a.231.231 0 0 0-.016.069h-.111c.483 1.476 1.871 2.542 3.506 2.542s3.022-1.066 3.507-2.542h-.111a.213.213 0 0 0-.014-.07L6.997 12.22 5.43 7.988a.267.267 0 0 0-.045-.085c.849.066 1.903-.14 3.063-1.01.619-.464 1.176-.723 1.695-.864.294-.08.582-.12.863-.142a1.221 1.221 0 0 0-.549 1.021c0 .438.231.824.577 1.041v10.804c-2.15.142-3.923.976-4.579 2.091h10.452zM6.523 12.393L7.971 16.3H2.405l1.447-3.907 1.335-3.606 1.336 3.606zm12.988 0l1.447 3.907h-5.566l1.447-3.907 1.336-3.606 1.336 3.606z"/></symbol><symbol id="logo-green" viewBox="0 0 39.48 40.89" xmlns="http://www.w3.org/2000/svg"><defs><style>.ccls-1{fill:#619801}</style></defs><path class="ccls-1" d="M35.43.56H20.77l.89 2.22-2.31.92a6.66 6.66 0 0 0-1.64-1.5 3.09 3.09 0 0 0-1.58-.48 4.61 4.61 0 0 0-1.71.37 3.1 3.1 0 0 0-1.29.91 2.07 2.07 0 0 0-.5 1.13 2.4 2.4 0 0 0 .15 1.13 3.35 3.35 0 0 0 1 1.39 5.61 5.61 0 0 0 1.83.88 25.75 25.75 0 0 0 3.49.74 22.44 22.44 0 0 1 3.9.84 6.56 6.56 0 0 1 2.27 1.31 5.72 5.72 0 0 1 1.39 2.12A4.87 4.87 0 0 1 27 14.2a6.35 6.35 0 0 1-.24 1.8 7.5 7.5 0 0 1-.76 1.78 13.35 13.35 0 0 1-1 1.65 7.52 7.52 0 0 1 2.42 1.36 5.13 5.13 0 0 1 1.53 4.91 5.85 5.85 0 0 1-1.68 2.79 10.26 10.26 0 0 1-3.23 2h3.07c7.67-.06 9.4 4.39 12.41 10.93V4.61A4.06 4.06 0 0 0 35.43.56zm-22.7 0H4.05A4.07 4.07 0 0 0 0 4.61v21.88a4.07 4.07 0 0 0 4.05 4.05h12.14L15.2 28l2.31-.92q2 3 5.08 1.76a3.2 3.2 0 0 0 1.82-1.5 2.38 2.38 0 0 0 0-2 3.3 3.3 0 0 0-1-1.38 5.41 5.41 0 0 0-1.81-.89 22.92 22.92 0 0 0-3.28-.67 21.33 21.33 0 0 1-3.91-.86A7.31 7.31 0 0 1 12 20.19 5.78 5.78 0 0 1 10.45 18a5.25 5.25 0 0 1-.18-3.26 9.69 9.69 0 0 1 1.85-3.57 7.4 7.4 0 0 1-2.29-1.34 5.12 5.12 0 0 1-1.34-1.94A4.4 4.4 0 0 1 8.34 5 5.9 5.9 0 0 1 10 2.34 9.39 9.39 0 0 1 12.73.56zm1.92 11.31a6.46 6.46 0 0 0-.65 1.81 3 3 0 0 0 .16 1.65 3.68 3.68 0 0 0 .56 1 3 3 0 0 0 .81.65 7.12 7.12 0 0 0 1.44.54c.63.17 1.62.39 3 .63.67.12 1.51.31 2.5.55a4.71 4.71 0 0 0 .63-1.82 3.42 3.42 0 0 0-.17-1.71 4.17 4.17 0 0 0-.4-.78 2.18 2.18 0 0 0-.46-.51 3.63 3.63 0 0 0-.7-.4 6.82 6.82 0 0 0-1.09-.37c-.45-.12-.94-.23-1.46-.33l-1.43-.3-1.45-.31q-1-.22-1.27-.3z" transform="translate(0 -.56)"/></symbol><symbol viewBox="0 0 511.92 511.92" id="send" xmlns="http://www.w3.org/2000/svg"><path d="M505.77 46.551a16.889 16.889 0 0 0-17.109-2.697L56.482 218.293a8.538 8.538 0 0 0 6.4 15.83l412.86-166.588-204.8 241.545a8.534 8.534 0 1 0 13.022 11.034L491.861 74.899l-27.785 139.469-27.989 187.025a8.536 8.536 0 0 1-4.267 6.204 8.066 8.066 0 0 1-7.194.333l-116.369-45.756-55.842-23.381a8.533 8.533 0 0 0-11.17 4.565 8.19 8.19 0 0 0-.358 1.801h-.205l-27.725 107.059-39.782-138.965L380.535 158.8a8.533 8.533 0 1 0-10.189-13.653L161.92 300.324 11.682 239.507a8.534 8.534 0 0 0-6.4 15.821l151.04 61.116 40.277 140.612a16.921 16.921 0 0 0 16.316 12.228h.196a16.768 16.768 0 0 0 11.093-4.463c.298-.179.583-.379.853-.597l82.483-84.343 110.592 43.853a24.865 24.865 0 0 0 21.939-1.229 25.524 25.524 0 0 0 12.86-18.526l27.913-186.675 30.72-154.121a17.16 17.16 0 0 0-5.794-16.632zM236.877 427.786l18.014-69.436 28.211 11.844 7.27 2.884-53.495 54.708z"/></symbol></svg>